<svg width="60" height="60" viewBox="0 0 60 60" fill="none" xmlns="http://www.w3.org/2000/svg">
<path d="M18.3607 52.6627C17.9518 52.4591 17.6768 52.027 17.6768 51.5466C17.6768 48.1502 19.0679 45.0663 21.2875 42.8341C21.6232 42.4984 22.0196 42.1502 22.4036 41.8377C22.9321 42.4984 23.3643 43.2305 23.6768 43.9984C23.4482 44.1788 23.2446 44.3823 23.0393 44.5859C21.3964 46.2305 20.3286 48.427 20.1714 50.8627C21.2161 51.4502 22.0196 51.8234 22.7875 51.9305C23.5196 52.027 24.3357 51.8823 25.4286 51.4984V47.3341C25.4286 44.6216 24.3125 42.1502 22.5125 40.3752C20.7357 38.5752 18.2768 37.4823 15.5768 37.4823C13.3679 37.4823 11.3393 38.2145 9.70714 39.4145C8.16071 40.5788 6.96071 42.1627 6.3 44.0109C7.4875 45.9913 8.91607 47.8377 10.5357 49.4698C15.5161 54.4502 22.4161 57.5216 30.0125 57.5216C31.8357 57.5216 33.6232 57.343 35.4 56.9698C36.9232 56.6698 38.4 56.2377 39.8643 55.6984V51.5341C39.8643 48.8216 38.7482 46.3752 36.9482 44.5752C35.1714 42.7984 32.7125 41.6823 30.0125 41.6823C29.2554 41.6823 28.5357 41.7788 27.8286 41.9341C27.4929 41.143 27.0714 40.3859 26.5804 39.702C27.6714 39.3788 28.8125 39.1984 30.0125 39.1984C31.9196 39.1984 33.7446 39.6538 35.3643 40.4216C36.3839 38.9216 37.7286 37.6752 39.2768 36.7377C41.1232 35.6216 43.2839 34.9859 45.5768 34.9859C48.0357 34.9859 50.3518 35.718 52.2839 36.9913C53.5554 37.8305 54.6964 38.8984 55.5839 40.1591C56.8321 36.9788 57.5161 33.5109 57.5161 29.9823C57.5161 22.3859 54.4446 15.5109 49.4643 10.5305C44.4839 5.55018 37.6071 2.47875 30.0125 2.47875C22.4161 2.47875 15.5161 5.56268 10.5357 10.543C5.55536 15.5234 2.48393 22.3984 2.48393 29.9948C2.48393 34.002 3.34821 37.7948 4.87143 41.2377C5.7125 39.7627 6.87679 38.4663 8.24464 37.4341C10.3196 35.9109 12.8393 34.9984 15.5875 34.9984C18.9839 34.9984 22.0446 36.3913 24.2768 38.6109C26.5071 40.8305 27.8875 43.9377 27.8875 47.3234V52.327C27.8875 52.8538 27.5518 53.3234 27.0714 53.4913C25.1875 54.2591 23.8446 54.5341 22.4768 54.3538C21.1554 54.1984 19.9804 53.6109 18.3607 52.6627ZM15.5875 21.5591C17.1607 21.5591 18.5643 22.1948 19.5964 23.202C20.6161 24.2234 21.2518 25.6627 21.2518 27.2109C21.2518 28.7823 20.6161 30.1859 19.5964 31.218C18.5768 32.2377 17.1607 32.8752 15.5875 32.8752C14.0393 32.8752 12.6125 32.2377 11.5804 31.218C10.5607 30.1984 9.93571 28.7823 9.93571 27.2109C9.93571 25.6627 10.5482 24.2341 11.5804 23.202C12.6 22.1948 14.0393 21.5591 15.5875 21.5591ZM17.8446 24.943C17.2804 24.3788 16.4768 24.0305 15.5875 24.0305C14.7232 24.0305 13.9321 24.3663 13.3321 24.943C12.7679 25.5305 12.3964 26.3341 12.3964 27.1984C12.3964 28.0859 12.7554 28.8788 13.3321 29.4538C13.9196 30.018 14.7232 30.3913 15.5875 30.3913C16.4768 30.3913 17.2679 30.0305 17.8446 29.4538C18.4196 28.8788 18.7804 28.0859 18.7804 27.1984C18.7679 26.3341 18.4071 25.5305 17.8446 24.943ZM44.4125 21.5591C45.9839 21.5591 47.3875 22.1948 48.4196 23.202C49.4393 24.2234 50.0643 25.6627 50.0643 27.2109C50.0643 28.7823 49.4518 30.1859 48.4196 31.218C47.4 32.2377 45.9839 32.8752 44.4125 32.8752C42.8393 32.8752 41.4357 32.2377 40.4036 31.218C39.3839 30.1984 38.7482 28.7823 38.7482 27.2109C38.7482 25.6627 39.3839 24.2341 40.4036 23.202C41.4357 22.1948 42.8393 21.5591 44.4125 21.5591ZM46.6679 24.943C46.0804 24.3788 45.2768 24.0305 44.4125 24.0305C43.5232 24.0305 42.7321 24.3663 42.1554 24.943C41.5929 25.5305 41.2196 26.3341 41.2196 27.1984C41.2196 28.0859 41.5804 28.8788 42.1554 29.4538C42.7321 30.0305 43.5232 30.3913 44.4125 30.3913C45.2768 30.3913 46.0679 30.0305 46.6679 29.4538C47.2321 28.8913 47.6036 28.0859 47.6036 27.1984C47.6036 26.3341 47.2321 25.5305 46.6679 24.943ZM30.0125 25.6752C31.5607 25.6752 32.9643 26.3109 33.9964 27.3305C35.0161 28.3502 35.6518 29.7663 35.6518 31.3377C35.6518 32.8859 35.0161 34.2913 33.9964 35.3234C32.9768 36.343 31.5607 36.9788 30.0125 36.9788C28.4393 36.9788 27.0357 36.343 26.0036 35.3234C24.9839 34.302 24.3482 32.8859 24.3482 31.3377C24.3482 29.7663 24.9839 28.3627 26.0036 27.3305C27.0357 26.3109 28.4393 25.6752 30.0125 25.6752ZM32.2446 29.0823C31.6804 28.518 30.8768 28.1466 30.0125 28.1466C29.1232 28.1466 28.3321 28.5073 27.7554 29.0823C27.1679 29.6466 26.8196 30.4502 26.8196 31.3377C26.8196 32.202 27.1554 32.9948 27.7554 33.5698C28.3196 34.1591 29.1232 34.5073 30.0125 34.5073C30.8768 34.5073 31.6679 34.1698 32.2446 33.5698C32.8321 33.0073 33.1804 32.202 33.1804 31.3377C33.1804 30.4502 32.8321 29.6591 32.2446 29.0823ZM37.4518 41.7305C37.9071 42.0663 38.3161 42.4377 38.7 42.8234C40.9321 45.0538 42.3125 48.1502 42.3125 51.5341V56.5377C42.3125 57.102 41.9518 57.5823 41.4232 57.727C39.6232 58.4823 37.7643 59.0234 35.8929 59.4073C33.9607 59.7913 31.9804 59.9948 30 59.9948C21.6964 59.9948 14.2071 56.6234 8.77143 51.2109C3.37143 45.7859 0 38.2984 0 29.9948C0 21.7145 3.37143 14.227 8.78393 8.79125C14.2196 3.37875 21.7071 0.00732422 30.0125 0.00732422C38.2929 0.00732422 45.7804 3.37875 51.2161 8.79125C56.6286 14.227 60 21.7145 60 29.9948C60 34.6859 58.9071 39.2341 56.8804 43.327C56.8321 43.3984 56.8071 43.4591 56.7714 43.5305C56.6768 43.6859 56.6161 43.8538 56.5196 44.0109C54.2875 48.2698 51.0125 51.9788 46.9196 54.7752C46.3554 55.1591 45.6 55.002 45.2161 54.4502C44.8321 53.8859 44.9643 53.1073 45.5393 52.7234C49.2964 50.1538 52.2964 46.7591 54.3482 42.8466C53.5804 41.3234 52.3929 40.002 50.9518 39.0663C49.4036 38.0698 47.5554 37.4698 45.5875 37.4698C43.7393 37.4698 42.0125 37.9752 40.5607 38.8627C39.3125 39.5948 38.2679 40.5788 37.4518 41.7305Z" fill="#43B14B"/>
</svg>
