<svg width="90" height="74" viewBox="0 0 90 74" fill="none" xmlns="http://www.w3.org/2000/svg">
<path d="M46.6348 66.8266C46.6348 66.8266 14.04 53.3054 9.1695 35.5145C4.29901 17.7235 21.1581 -5.04984 42.5132 16.2998C42.5132 16.2998 71.7362 -4.69351 80.353 18.0791C88.9706 40.8517 54.5026 63.268 46.6348 66.8266Z" fill="#F26B49"/>
<path d="M56.1602 46.5081C56.1405 46.4261 56.0845 46.3512 56.0427 46.2739C56.0009 46.3126 55.9181 46.3599 55.9252 46.3883C55.9449 46.4702 56.0009 46.5451 56.0427 46.6224C56.0845 46.5838 56.1673 46.5364 56.1602 46.5081Z" fill="white"/>
<path d="M46.0786 54.8186C46.1204 54.8572 46.1716 54.9337 46.2024 54.9274C46.2907 54.9093 46.3711 54.8572 46.4547 54.8186C46.4129 54.78 46.3711 54.7413 46.3206 54.6948C46.2418 54.735 46.1598 54.7768 46.0786 54.8186Z" fill="white"/>
<path d="M49.0933 37.5544C49.1966 37.515 49.3787 37.4882 49.389 37.433C49.4268 37.2289 49.2605 37.1808 49.0807 37.2099C48.9735 37.2273 48.7946 37.273 48.7843 37.3274C48.7465 37.5308 48.9097 37.5686 49.0933 37.5544Z" fill="white"/>
<path d="M49.086 16.4529C49.0025 16.4143 48.922 16.3622 48.8337 16.3441C48.803 16.3378 48.7517 16.4143 48.71 16.4529C48.792 16.4947 48.8732 16.5365 48.952 16.5767C49.0024 16.5309 49.0442 16.4915 49.086 16.4529Z" fill="white"/>
<path d="M46.5774 31.2111C46.6657 31.193 46.7461 31.1409 46.8297 31.1023C46.7879 31.0637 46.7461 31.025 46.6956 30.9785C46.6168 31.0187 46.5348 31.0605 46.4536 31.1023C46.4962 31.1409 46.5467 31.2174 46.5774 31.2111Z" fill="white"/>
<path d="M47.1242 37.0892C47.1786 36.7265 46.8254 36.9047 46.6488 36.855C46.4714 36.8787 46.19 36.7778 46.1608 36.9741C46.1072 37.3351 46.4549 37.1854 46.6425 37.1995C46.812 37.2114 47.095 37.2839 47.1242 37.0892Z" fill="white"/>
<path d="M45.0204 27.5543C45.0401 27.6363 45.0961 27.7112 45.1378 27.7884C45.1796 27.7498 45.2624 27.7025 45.2553 27.6741C45.2356 27.5921 45.1796 27.5172 45.1378 27.4399C45.0961 27.4778 45.0141 27.5251 45.0204 27.5543Z" fill="white"/>
<path d="M46.8307 30.4046C46.7889 30.3659 46.7376 30.2895 46.7069 30.2958C46.6186 30.3139 46.5382 30.3659 46.4546 30.4046C46.4964 30.4432 46.5468 30.5197 46.5784 30.5134C46.6667 30.4952 46.7471 30.4432 46.8307 30.4046Z" fill="white"/>
<path d="M46.125 14.3315C46.1092 14.3788 46.229 14.4655 46.2866 14.5349C46.3426 14.5349 46.3985 14.5349 46.4545 14.5349C46.4198 14.4443 46.4001 14.3457 46.3465 14.2661C46.2842 14.1739 46.1699 14.1967 46.125 14.3315Z" fill="white"/>
<path d="M46.9954 14.8889C46.9182 14.8542 46.8606 14.8542 46.8307 14.8802C46.8386 14.6414 46.714 14.5255 46.4546 14.5341C46.4451 14.7746 46.5697 14.8905 46.8275 14.8826C46.7991 14.9102 46.7991 14.9638 46.837 15.0356C46.874 15.1057 46.9757 15.1522 47.0569 15.1932C47.0711 15.2003 47.1326 15.1262 47.176 15.086C47.1168 15.0182 47.0719 14.9236 46.9954 14.8889Z" fill="white"/>
<path d="M56.8332 56.6991C56.8474 56.7062 56.9081 56.6321 56.9523 56.5919C56.8931 56.5249 56.8482 56.4295 56.7717 56.3948C56.614 56.3239 56.5368 56.3956 56.6133 56.5414C56.6503 56.6116 56.7512 56.6581 56.8332 56.6991Z" fill="white"/>
<path d="M55.6018 40.4095C55.571 40.4032 55.5198 40.4797 55.478 40.5183C55.56 40.5601 55.6412 40.6019 55.7201 40.6429C55.7705 40.5964 55.8123 40.5578 55.8541 40.5183C55.7713 40.4797 55.6909 40.4277 55.6018 40.4095Z" fill="white"/>
<path d="M52.8529 32.8236C52.8899 32.8946 52.9909 32.9403 53.0728 32.9813C53.087 32.9884 53.1485 32.9143 53.1919 32.8741C53.1328 32.807 53.0878 32.7117 53.0114 32.677C52.9333 32.6423 52.8757 32.6423 52.8458 32.6683C52.8119 32.5784 52.7914 32.4807 52.7386 32.4018C52.6763 32.3096 52.5628 32.3325 52.517 32.4673C52.5013 32.5146 52.6211 32.6021 52.6787 32.6707C52.7339 32.6707 52.7882 32.6707 52.8434 32.6707C52.8158 32.699 52.815 32.7519 52.8529 32.8236Z" fill="white"/>
<path d="M52.5573 14.8768C52.7449 14.8571 52.8916 14.7554 52.8482 14.5512C52.8703 14.2201 52.6424 14.1641 52.3846 14.1909C52.1962 14.2106 52.0851 14.3139 52.0874 14.5291C52.0898 14.8524 52.3003 14.9036 52.5573 14.8768Z" fill="white"/>
<path d="M51.2186 49.4779C51.1303 49.496 51.0499 49.5481 50.9663 49.5867C51.0081 49.6253 51.0586 49.7018 51.0901 49.6955C51.1784 49.6774 51.2588 49.6253 51.3424 49.5867C51.3006 49.5481 51.2501 49.4716 51.2186 49.4779Z" fill="white"/>
<path d="M50.2686 17.5492C50.319 17.5957 50.3608 17.6343 50.4026 17.673C50.4443 17.5957 50.5003 17.5208 50.52 17.4388C50.5271 17.4104 50.4443 17.3631 50.4026 17.3237C50.3568 17.4002 50.3119 17.4767 50.2686 17.5492Z" fill="white"/>
<path d="M51.155 60.9227C51.1999 60.847 51.2457 60.7713 51.289 60.698C51.2386 60.6515 51.1968 60.6128 51.155 60.5742C51.1132 60.6515 51.0572 60.7264 51.0375 60.8084C51.0304 60.8367 51.1132 60.884 51.155 60.9227Z" fill="white"/>
<path d="M52.2924 12.7188C52.4863 12.5564 52.6629 12.409 52.8395 12.2616C52.6842 12.2056 52.5233 12.0929 52.3743 12.1055C52.0488 12.1323 52.0669 12.3901 52.1055 12.6061C52.115 12.6628 52.2561 12.6983 52.2924 12.7188Z" fill="white"/>
<path d="M29.0786 54.8835C29.0952 54.8157 29.029 54.673 28.9706 54.6565C28.5205 54.5264 28.3581 54.9056 28.0963 55.1074C28.0041 55.1783 27.9142 55.2572 27.8425 55.3463C27.7873 55.4141 27.7621 55.5024 27.7227 55.5812C27.8267 55.6183 27.9316 55.6545 28.0356 55.6908C28.5678 55.7263 28.9399 55.4464 29.0786 54.8835Z" fill="white"/>
<path d="M31.4141 37.3802C31.4961 37.422 31.5773 37.4638 31.6561 37.5048C31.7065 37.4583 31.7483 37.4197 31.7901 37.3802C31.7066 37.3416 31.6261 37.2896 31.5378 37.2715C31.5063 37.2644 31.4558 37.3416 31.4141 37.3802Z" fill="white"/>
<path d="M33.5467 30.9926C33.4584 31.0107 33.378 31.0627 33.2944 31.1013C33.3362 31.14 33.3875 31.2165 33.4182 31.2101C33.5065 31.192 33.5869 31.14 33.6705 31.1013C33.6279 31.0627 33.5775 30.9862 33.5467 30.9926Z" fill="white"/>
<path d="M31.8438 43.7076C31.8942 43.7541 31.936 43.7927 31.9778 43.8314C32.0195 43.7541 32.0755 43.6792 32.0952 43.5972C32.1023 43.5689 32.0195 43.5215 31.9778 43.4829C31.9328 43.5586 31.8879 43.6343 31.8438 43.7076Z" fill="white"/>
<path d="M43.2938 43.7902C43.3214 43.7965 43.3947 43.6262 43.3995 43.6183C43.4988 43.3527 43.3955 43.2178 43.2418 43.1406C43.0818 43.0602 43.0337 43.1311 43.0644 43.2983C43.0991 43.4859 42.995 43.724 43.2938 43.7902Z" fill="white"/>
<path d="M33.5127 34.1098C33.4614 34.0948 33.3676 34.206 33.2935 34.2596C33.2935 34.3108 33.2935 34.3613 33.2935 34.4117C33.2635 34.3857 33.206 34.3857 33.1287 34.4204C33.0531 34.4551 33.0026 34.5489 32.9585 34.6246C32.9514 34.6372 33.031 34.6947 33.0743 34.7349C33.1469 34.6798 33.2494 34.6388 33.2872 34.567C33.325 34.4945 33.325 34.4409 33.2966 34.4133C33.3936 34.3817 33.4985 34.3628 33.5836 34.314C33.683 34.2572 33.6585 34.1516 33.5127 34.1098Z" fill="white"/>
<path d="M30.2861 35.2869C30.3673 35.3287 30.4493 35.3705 30.5282 35.4107C30.5786 35.3642 30.6204 35.3255 30.6622 35.2869C30.5786 35.2483 30.4982 35.1962 30.4099 35.1781C30.3784 35.1718 30.3279 35.2483 30.2861 35.2869Z" fill="white"/>
<path d="M54.7564 32.0168C54.6917 31.9001 54.6153 31.763 54.5388 31.625C54.4765 31.7133 54.3543 31.8071 54.3638 31.8883C54.3811 32.0373 54.4765 32.1784 54.5388 32.3227C54.6011 32.2344 54.6642 32.1461 54.7564 32.0168Z" fill="white"/>
<path d="M31.0381 38.4257C31.0799 38.4643 31.1217 38.5029 31.1721 38.5494C31.251 38.5092 31.3329 38.4674 31.4141 38.4257C31.3723 38.387 31.3211 38.3098 31.2904 38.3169C31.2013 38.335 31.1217 38.387 31.0381 38.4257Z" fill="white"/>
<path d="M31.7363 24.7732C31.6858 24.7267 31.644 24.688 31.6023 24.6494C31.5605 24.7267 31.5045 24.8016 31.4848 24.8836C31.4777 24.9119 31.5605 24.9592 31.6023 24.9979C31.6472 24.9222 31.6929 24.8465 31.7363 24.7732Z" fill="white"/>
<path d="M33.7407 31.7403C33.7604 31.8223 33.8163 31.8972 33.8581 31.9744C33.8999 31.9358 33.9417 31.8972 33.9922 31.8507C33.9488 31.7773 33.9038 31.7017 33.8581 31.626C33.8163 31.6638 33.7336 31.7111 33.7407 31.7403Z" fill="white"/>
<path d="M43.1936 53.1833C43.2819 53.1652 43.3623 53.1131 43.4459 53.0745C43.4041 53.0359 43.3529 52.9594 43.3221 52.9657C43.2338 52.9838 43.1534 53.0359 43.0698 53.0745C43.1116 53.1131 43.1629 53.1904 43.1936 53.1833Z" fill="white"/>
<path d="M43.3221 16.6923C43.2338 16.7104 43.1534 16.7624 43.0698 16.8011C43.1116 16.8397 43.1629 16.9162 43.1936 16.9099C43.2819 16.8917 43.3623 16.8397 43.4459 16.8011C43.4041 16.7624 43.3529 16.686 43.3221 16.6923Z" fill="white"/>
<path d="M41.3097 51.0509C41.8466 50.9524 41.491 50.4337 41.5549 50.097C41.6077 49.8187 41.5707 49.5247 41.5596 49.2385C41.5581 49.1967 41.4619 49.1155 41.4374 49.1242C41.3484 49.1533 41.2056 49.2085 41.2009 49.2622C41.1773 49.5475 41.1899 49.8353 41.1899 50.1223C41.2419 50.4479 41.1307 51.0833 41.3097 51.0509Z" fill="white"/>
<path d="M42.7407 42.9316C42.7249 42.9789 42.8448 43.0664 42.9023 43.135C42.9583 43.135 43.0142 43.135 43.0702 43.135C43.0355 43.0444 43.0158 42.9458 42.9622 42.8662C42.8999 42.7739 42.7864 42.7968 42.7407 42.9316Z" fill="white"/>
<path d="M34.4926 57.5499C34.5123 57.6318 34.5683 57.7067 34.6101 57.784C34.6519 57.7454 34.6936 57.7067 34.7441 57.6602C34.7007 57.5869 34.655 57.5112 34.6101 57.4355C34.5683 57.4734 34.4855 57.5207 34.4926 57.5499Z" fill="white"/>
<path d="M35.3625 13.8372C35.4043 13.7986 35.4871 13.7513 35.48 13.7229C35.4603 13.6409 35.4043 13.566 35.3625 13.4888C35.3207 13.5274 35.279 13.566 35.2285 13.6126C35.2719 13.6859 35.3168 13.7616 35.3625 13.8372Z" fill="white"/>
<path d="M37.9299 38.8839C38.0182 38.8658 38.0987 38.8138 38.1822 38.7752C38.1404 38.7365 38.0986 38.6979 38.0482 38.6514C37.9693 38.6916 37.8874 38.7334 37.8062 38.7759C37.8479 38.813 37.8984 38.8903 37.9299 38.8839Z" fill="white"/>
<path d="M41.0667 39.7123C40.9784 39.7304 40.898 39.7824 40.8145 39.8211C40.8562 39.8597 40.898 39.8983 40.9485 39.9449C41.0273 39.9046 41.1093 39.8629 41.1905 39.8211C41.1479 39.7832 41.0975 39.706 41.0667 39.7123Z" fill="white"/>
<path d="M40.5087 55.4561C40.5284 55.5381 40.5844 55.613 40.6262 55.6902C40.668 55.6516 40.7508 55.6043 40.7437 55.5759C40.724 55.4939 40.668 55.4191 40.6262 55.3418C40.5844 55.3804 40.5016 55.4277 40.5087 55.4561Z" fill="white"/>
<path d="M44.6444 36.2735C44.6641 36.3555 44.7201 36.4304 44.7618 36.5076C44.8036 36.469 44.8864 36.4217 44.8793 36.3933C44.8596 36.3113 44.8036 36.2364 44.7618 36.1592C44.7208 36.1978 44.6381 36.2443 44.6444 36.2735Z" fill="white"/>
<path d="M71.4592 33.0206C71.501 32.982 71.5838 32.9347 71.5767 32.9055C71.557 32.8235 71.501 32.7486 71.4592 32.6714C71.4174 32.71 71.3757 32.7487 71.3252 32.7952C71.3693 32.8685 71.4143 32.9449 71.4592 33.0206Z" fill="white"/>
<path d="M71.6582 29.3503C71.6684 29.4024 71.8498 29.4851 71.8963 29.4607C72.0863 29.3622 72.0815 28.29 71.8915 28.2056C71.8419 28.1835 71.6684 28.2719 71.6574 28.327C71.6251 28.4926 71.6456 28.6668 71.6456 28.8379C71.6456 29.009 71.6274 29.184 71.6582 29.3503Z" fill="white"/>
<path d="M74.6553 34.5896C74.7373 34.6314 74.8185 34.6732 74.8973 34.7134C74.9478 34.6669 74.9896 34.6283 75.0313 34.5896C74.9478 34.551 74.8674 34.499 74.7791 34.4808C74.7483 34.4745 74.6971 34.551 74.6553 34.5896Z" fill="white"/>
<path d="M75.0301 22.2149C74.9071 22.2055 74.7817 22.1952 74.6603 22.2102C74.2543 22.2591 74.0556 22.5382 73.9122 22.8472C73.8759 22.926 73.9216 23.1074 73.991 23.1452C74.0848 23.1964 74.0746 23.2351 74.0525 23.2564C74.0643 23.2509 74.0761 23.2461 74.0966 23.2382C74.4167 22.9442 74.7265 22.6643 75.0269 22.3758C75.0577 22.3466 75.0356 22.2157 75.0301 22.2149Z" fill="white"/>
<path d="M67.1412 24.4529C67.1782 24.523 67.2799 24.5695 67.3611 24.6105C67.3753 24.6176 67.4368 24.5435 67.4802 24.5025C67.421 24.4355 67.3761 24.3401 67.2996 24.3054C67.2224 24.2707 67.1648 24.2707 67.1348 24.2967C67.1427 24.0571 67.0182 23.942 66.7588 23.9507C66.7493 24.1911 66.8739 24.307 67.1317 24.2991C67.1033 24.3275 67.1033 24.3811 67.1412 24.4529Z" fill="white"/>
<path d="M74.0527 23.2563C73.9968 23.2816 74.0299 23.2792 74.0527 23.2563V23.2563Z" fill="white"/>
<path d="M70.5893 32.7865C70.609 32.8685 70.665 32.9434 70.7068 33.0206C70.7485 32.982 70.8313 32.9347 70.8242 32.9055C70.8045 32.8235 70.7485 32.7486 70.7068 32.6714C70.665 32.71 70.5822 32.7573 70.5893 32.7865Z" fill="white"/>
<path d="M66.3828 46.0995C66.4246 46.1381 66.4664 46.1767 66.5168 46.2232C66.5957 46.183 66.6777 46.1413 66.7589 46.0995C66.7171 46.0609 66.6658 45.9836 66.6351 45.9907C66.5468 46.0088 66.4664 46.0609 66.3828 46.0995Z" fill="white"/>
<path d="M66.4296 23.7487C66.4139 23.796 66.5337 23.8835 66.5912 23.9521C66.6472 23.9521 66.7032 23.9521 66.7592 23.9521C66.7245 23.8614 66.7048 23.7629 66.6512 23.6832C66.5889 23.5918 66.4754 23.6139 66.4296 23.7487Z" fill="white"/>
<path d="M67.8765 47.8242C67.9789 47.6918 67.8907 47.635 67.7109 47.6634C67.5083 47.6957 67.2513 47.5988 67.1803 47.8763C67.174 47.9023 67.3569 47.9701 67.5012 48.0434C67.6139 47.9811 67.7913 47.9338 67.8765 47.8242Z" fill="white"/>
<path d="M75.0854 33.9429C75.1359 33.9895 75.1777 34.0281 75.2195 34.0667C75.2612 33.9895 75.3172 33.9146 75.3369 33.8326C75.344 33.8042 75.2612 33.7569 75.2195 33.7183C75.1737 33.7939 75.1288 33.8696 75.0854 33.9429Z" fill="white"/>
<path d="M78.7915 19.5921C78.8333 19.6307 78.8751 19.6693 78.9255 19.7166C79.0044 19.6764 79.0863 19.6346 79.1675 19.5921C79.1258 19.5534 79.0753 19.477 79.0438 19.4833C78.9555 19.5014 78.8751 19.5534 78.7915 19.5921Z" fill="white"/>
<path d="M54.011 54.9721C54.365 55.9024 55.2755 56.202 56.0395 56.388C56.3564 56.388 56.5787 56.4172 56.5905 56.3833C56.6654 56.1728 56.4967 56.1019 56.3107 56.0364C55.527 55.7605 54.6992 55.4783 54.3784 54.697C54.2317 54.3407 54.0425 54.1664 53.7729 54.3407C53.3677 54.604 53.9322 54.7656 54.011 54.9721Z" fill="white"/>
<path d="M75.9153 21.518C75.4494 21.4234 75.3169 21.846 75.0323 22.0304C74.9685 22.2086 75.0434 22.196 75.2152 22.222C75.6954 22.2953 75.8428 21.9209 76.1211 21.7206C76.0533 21.6505 75.9957 21.5346 75.9153 21.518Z" fill="white"/>
<path d="M60.4272 41.8576C60.5999 42.0461 60.7726 42.2353 60.9452 42.4237C61.0035 42.3346 61.0619 42.2447 61.1336 42.1343C61.1037 41.9278 61.0761 41.7015 60.7363 41.7433C60.6291 41.7567 60.5297 41.8182 60.4272 41.8576Z" fill="white"/>
<path d="M61.4243 19.6526C61.4046 19.5706 61.3486 19.4957 61.3069 19.4185C61.2651 19.4571 61.2233 19.4957 61.1729 19.543C61.2162 19.6164 61.2611 19.692 61.3069 19.7677C61.3479 19.7283 61.4306 19.681 61.4243 19.6526Z" fill="white"/>
<path d="M60.8665 22.2738C60.8357 22.2675 60.7845 22.344 60.7427 22.3826C60.8247 22.4244 60.9059 22.4662 60.9847 22.5072C61.0352 22.4606 61.077 22.422 61.1187 22.3826C61.0352 22.344 60.9548 22.2919 60.8665 22.2738Z" fill="white"/>
<path d="M59.6147 56.2137C59.6967 56.2555 59.7779 56.2973 59.8568 56.3375C59.9072 56.291 59.949 56.2524 59.9908 56.2137C59.9072 56.1751 59.8268 56.1231 59.7385 56.1049C59.7078 56.0979 59.6565 56.1751 59.6147 56.2137Z" fill="white"/>
<path d="M61.2429 24.9334C61.3312 24.9152 61.4116 24.8632 61.4952 24.8246C61.4534 24.786 61.4022 24.7087 61.3714 24.7158C61.2831 24.7339 61.2027 24.786 61.1191 24.8246C61.1609 24.8624 61.2114 24.9389 61.2429 24.9334Z" fill="white"/>
<path d="M54.2201 42.0195C54.2792 42.01 54.3084 41.8413 54.3463 41.757C54.3699 41.5733 54.3242 41.4251 54.1058 41.459C54.0475 41.4676 53.9978 41.634 53.9797 41.7341C53.9481 41.9012 53.9994 42.055 54.2201 42.0195Z" fill="white"/>
<path d="M53.8439 38.6691C53.6239 38.6344 53.583 38.7857 53.5987 38.956C53.6413 39.0514 53.6704 39.2209 53.7296 39.2304C53.9495 39.2659 54.0016 39.1113 53.97 38.945C53.9511 38.8441 53.903 38.6785 53.8439 38.6691Z" fill="white"/>
<path d="M59.051 44.1815C59.0928 44.1428 59.1756 44.0955 59.1685 44.0671C59.1488 43.9852 59.0928 43.9103 59.051 43.833C59.0092 43.8716 58.9674 43.9103 58.917 43.9568C58.9604 44.0293 59.0053 44.1058 59.051 44.1815Z" fill="white"/>
<path d="M56.9824 20.9877C57.0242 21.0263 57.0755 21.1028 57.1062 21.0965C57.1945 21.0783 57.2749 21.0263 57.3585 20.9877C57.3167 20.949 57.2654 20.8718 57.2347 20.8789C57.1464 20.8962 57.066 20.9483 56.9824 20.9877Z" fill="white"/>
<path d="M62.1159 55.7594C61.8959 55.7247 61.8549 55.8761 61.8707 56.0463C61.9133 56.1417 61.9424 56.3112 62.0016 56.3207C62.2223 56.3562 62.2735 56.2017 62.242 56.0353C62.2231 55.9344 62.1742 55.7689 62.1159 55.7594Z" fill="white"/>
<path d="M64.1265 21.3362C64.1682 21.3748 64.2195 21.4513 64.2502 21.445C64.3385 21.4268 64.4189 21.3748 64.5025 21.3362C64.4607 21.2976 64.4189 21.2589 64.3685 21.2124C64.2904 21.2526 64.2085 21.2944 64.1265 21.3362Z" fill="white"/>
<path d="M65.2545 35.2869C65.1709 35.2483 65.0905 35.1962 65.0022 35.1781C64.9715 35.1718 64.9202 35.2483 64.8784 35.2869C64.9604 35.3287 65.0416 35.3705 65.1205 35.4107C65.1709 35.365 65.2127 35.3255 65.2545 35.2869Z" fill="white"/>
<path d="M68.0626 47.6716C68.2211 47.6314 68.3945 47.6298 68.5443 47.5738C68.6594 47.5304 68.6342 47.4075 68.4812 47.3554C68.2558 47.279 68.0366 47.2931 67.8837 47.5155C67.8285 47.6692 67.8844 47.7157 68.0626 47.6716Z" fill="white"/>
<path d="M65.1317 16.3441C65.0434 16.3622 64.963 16.4143 64.8794 16.4529C64.9212 16.4915 64.963 16.5302 65.0134 16.5767C65.0923 16.5365 65.1734 16.4947 65.2554 16.4529C65.2129 16.4143 65.1624 16.3378 65.1317 16.3441Z" fill="white"/>
<path d="M64.6262 37.489C64.7145 37.4708 64.7949 37.4188 64.8785 37.3802C64.8367 37.3415 64.7863 37.2651 64.7547 37.2714C64.6664 37.2895 64.586 37.3415 64.5024 37.3802C64.5442 37.4188 64.5955 37.4953 64.6262 37.489Z" fill="white"/>
<path d="M63.3814 48.7151C63.4847 48.6757 63.6668 48.6489 63.677 48.5937C63.7149 48.3895 63.5486 48.3414 63.3688 48.3706C63.2616 48.3879 63.0826 48.4329 63.0724 48.4881C63.0345 48.6915 63.1985 48.7301 63.3814 48.7151Z" fill="white"/>
<path d="M63.751 47.4952C63.6691 47.4534 63.5878 47.4116 63.509 47.3706C63.4586 47.4171 63.4168 47.4557 63.375 47.4952C63.4586 47.5338 63.539 47.5858 63.6273 47.604C63.658 47.6103 63.7093 47.5338 63.751 47.4952Z" fill="white"/>
<path d="M63.201 43.8213C63.3682 43.8308 63.5708 43.9057 63.6969 43.7023C63.6512 43.6337 63.6055 43.4989 63.5495 43.4957C63.3824 43.4847 63.1664 43.4082 63.0694 43.6077C63.0457 43.655 63.149 43.8182 63.201 43.8213Z" fill="white"/>
<path d="M28.0213 26.2907C28.0111 26.2647 27.9977 26.2135 27.974 26.1678C27.8913 26.0124 27.8195 26.0195 27.717 26.1544C27.5838 26.3294 27.4056 26.4776 27.2882 26.6597C27.2432 26.7291 27.2795 26.8859 27.3394 26.9624C27.5452 27.2273 27.6114 26.9214 27.7091 26.8528C27.8928 26.7235 28.0876 26.5761 28.0213 26.2907Z" fill="white"/>
<path d="M28.3355 10.9329C28.3158 10.8509 28.2598 10.776 28.218 10.6987C28.1762 10.7374 28.0934 10.7847 28.1005 10.8131C28.1202 10.895 28.1762 10.9699 28.218 11.0472C28.259 11.0086 28.3418 10.9613 28.3355 10.9329Z" fill="white"/>
<path d="M16.373 18.8943C16.4148 18.9329 16.4566 18.9716 16.5071 19.0181C16.5859 18.9779 16.6671 18.9361 16.7491 18.8943C16.7073 18.8557 16.6561 18.7792 16.6253 18.7855C16.537 18.8037 16.4566 18.8557 16.373 18.8943Z" fill="white"/>
<path d="M17.3373 18.3776C17.2616 18.4123 17.2112 18.5061 17.167 18.5817C17.1592 18.5951 17.2396 18.6519 17.2829 18.6921C17.3555 18.6377 17.4587 18.5959 17.4958 18.5242C17.5715 18.3783 17.4942 18.3058 17.3373 18.3776Z" fill="white"/>
<path d="M17.8577 18.3584C18.1115 18.3474 18.445 18.5153 18.579 18.1621C18.5829 18.1511 18.2968 18.0454 18.2511 18.0273C17.8979 18.0202 17.592 17.965 17.5171 18.2102C17.4217 18.5256 17.752 18.3631 17.8577 18.3584Z" fill="white"/>
<path d="M19.687 29.4172C19.6673 29.3353 19.6114 29.2604 19.5696 29.1831C19.5278 29.2217 19.486 29.2604 19.4355 29.3069C19.4789 29.3802 19.5246 29.4559 19.5696 29.5316C19.6106 29.4929 19.6941 29.4464 19.687 29.4172Z" fill="white"/>
<path d="M24.0168 16.9111C24.1051 16.8929 24.1855 16.8409 24.2691 16.8023C24.2273 16.7637 24.1855 16.725 24.1351 16.6777C24.0562 16.7179 23.9751 16.7597 23.8931 16.8023C23.9356 16.8409 23.9861 16.9174 24.0168 16.9111Z" fill="white"/>
<path d="M24.646 15.7557C24.728 15.7975 24.8092 15.8393 24.888 15.8795C24.9385 15.833 24.9803 15.7944 25.022 15.7557C24.9385 15.7171 24.8581 15.6651 24.7698 15.6469C24.7382 15.6399 24.687 15.7163 24.646 15.7557Z" fill="white"/>
<path d="M26.2202 9.41753C26.2399 9.49952 26.2958 9.57441 26.3376 9.65167C26.3794 9.61304 26.4622 9.56574 26.4551 9.53736C26.4354 9.45537 26.3794 9.38048 26.3376 9.30322C26.2958 9.34185 26.2131 9.38915 26.2202 9.41753Z" fill="white"/>
<path d="M23.5181 41.9138C23.5993 41.9556 23.6813 41.9974 23.7601 42.0384C23.8106 41.9919 23.8523 41.9533 23.8941 41.9138C23.8105 41.8752 23.7301 41.8232 23.6418 41.8051C23.6103 41.7987 23.5598 41.8752 23.5181 41.9138Z" fill="white"/>
<path d="M21.073 14.8838C21.0312 14.9224 20.9484 14.9697 20.9555 14.9981C20.9752 15.0801 21.0312 15.155 21.073 15.2322C21.1147 15.1936 21.1975 15.1463 21.1904 15.1171C21.1707 15.0359 21.1147 14.9618 21.073 14.8838Z" fill="white"/>
<path d="M19.7574 46.0994C19.6738 46.0608 19.5934 46.0087 19.5051 45.9906C19.4744 45.9843 19.4231 46.0608 19.3813 46.0994C19.4633 46.1412 19.5445 46.1829 19.6234 46.2232C19.6738 46.1766 19.7156 46.138 19.7574 46.0994Z" fill="white"/>
<path d="M20.9555 33.1348C20.9752 33.2168 21.0312 33.2917 21.073 33.369C21.1147 33.3303 21.1975 33.283 21.1904 33.2546C21.1707 33.1727 21.1147 33.0978 21.073 33.0205C21.0312 33.0591 20.9484 33.1065 20.9555 33.1348Z" fill="white"/>
<path d="M19.2577 41.1073C19.1694 41.1254 19.0889 41.1775 19.0054 41.2161C19.0472 41.2547 19.0984 41.3312 19.1292 41.3249C19.2175 41.3068 19.2978 41.2547 19.3814 41.2161C19.3396 41.1775 19.2884 41.101 19.2577 41.1073Z" fill="white"/>
<path d="M21.2679 9.45624C21.305 9.5264 21.4067 9.5729 21.4879 9.6139C21.5021 9.62099 21.5635 9.54689 21.6069 9.50589C21.5478 9.43888 21.5029 9.34349 21.4264 9.3088C21.3483 9.27412 21.2908 9.27413 21.2608 9.30014C21.2269 9.21027 21.2072 9.1125 21.1536 9.03367C21.0913 8.94143 20.9778 8.9643 20.9321 9.09911C20.9163 9.14641 21.0361 9.23391 21.0937 9.3025C21.1489 9.3025 21.2033 9.3025 21.2585 9.3025C21.2301 9.33088 21.2301 9.3845 21.2679 9.45624Z" fill="white"/>
<path d="M14.8696 24.476C14.9516 24.5177 15.0328 24.5595 15.1117 24.5997C15.1621 24.5532 15.2039 24.5146 15.2457 24.476C15.1621 24.4373 15.0817 24.3853 14.9934 24.3672C14.9619 24.3601 14.9114 24.4365 14.8696 24.476Z" fill="white"/>
<path d="M42.6235 41.9739C42.6038 41.8919 42.5479 41.817 42.5061 41.7397C42.4643 41.7784 42.3815 41.8257 42.3886 41.8549C42.4083 41.9369 42.4643 42.0117 42.5061 42.089C42.5479 42.0496 42.6306 42.0023 42.6235 41.9739Z" fill="white"/>
<path d="M39.9388 63.4291C39.8505 63.4472 39.7701 63.4992 39.6865 63.5379C39.6881 63.5394 39.6897 63.541 39.6913 63.5418C39.7528 63.5734 39.8127 63.6033 39.8734 63.6348C39.9356 63.6025 39.9987 63.5702 40.0626 63.5379C40.02 63.4992 39.9696 63.4228 39.9388 63.4291Z" fill="white"/>
<path d="M13.3652 14.7089C13.407 14.7475 13.4575 14.824 13.489 14.8177C13.5773 14.7995 13.6577 14.7475 13.7413 14.7089C13.6995 14.6702 13.6482 14.593 13.6175 14.6001C13.5292 14.6182 13.4488 14.6702 13.3652 14.7089Z" fill="white"/>
<path d="M12.2373 17.1502C12.2791 17.1888 12.3303 17.2653 12.3611 17.259C12.4494 17.2408 12.5298 17.1888 12.6133 17.1502C12.5716 17.1115 12.5203 17.0351 12.4896 17.0414C12.4013 17.0595 12.3209 17.1115 12.2373 17.1502Z" fill="white"/>
<path d="M47.2642 71.4867C37.0502 67.2303 25.4818 60.5853 16.6159 53.0225C10.3176 47.6498 4.35763 41.0308 2.79273 32.6442C1.17738 23.9888 3.71432 13.9301 10.2577 7.81553C20.2297 -1.50289 32.8679 4.95534 41.1875 13.0597C41.5352 13.3979 42.1958 13.5485 42.6207 13.2442C51.8469 6.6519 67.6252 -1.39804 78.6244 5.04287C87.7725 10.3998 89.2594 23.2083 86.0981 32.384C82.7207 42.1865 75.2691 50.3153 67.6078 57.0392C61.2497 62.6192 54.0819 68.04 46.3536 71.605C44.9732 72.242 46.1731 74.2807 47.5472 73.6468C55.0587 70.182 61.9979 64.9528 68.2496 59.603C76.4446 52.5905 84.2698 44.0983 88.0839 33.8362C91.5677 24.4625 90.546 12.619 82.988 5.40551C76.5967 -0.694042 67.287 -0.199752 59.4089 2.25363C53.0744 4.22611 46.833 7.33935 41.4272 11.2023C41.9049 11.2638 42.3827 11.3253 42.8604 11.3868C35.5263 4.24268 25.1317 -2.21715 14.6828 2.13776C6.34982 5.61128 1.47616 14.5127 0.288105 23.1208C-2.45382 42.9835 14.8972 56.351 30.152 65.3698C35.4482 68.5012 40.9518 71.396 46.6367 73.7651C48.0392 74.3524 48.6509 72.0646 47.2642 71.4867Z" fill="#404040"/>
</svg>
